<?xml version="1.0" encoding="UTF-8"?> <svg xmlns="http://www.w3.org/2000/svg" xmlns:xlink="http://www.w3.org/1999/xlink" width="156.855508px" height="47.4121074px" viewBox="0 0 156.855508 47.4121074"> <title>Group 2</title> <g id="Page-1" stroke="none" stroke-width="1" fill="none" fill-rule="evenodd"> <g id="Group-2" transform="translate(0.000000, 0.000000)" fill-rule="nonzero"> <path d="M152.783172,35.2683591 L43.3469109,35.2423777 L43.3469109,35.2327274 L5.75986094,35.2490586 C4.94963421,35.2702806 4.22801561,35.7669753 3.91888681,36.516213 L3.29013476,38.1389426 C3.20769015,38.4248377 3.26460016,38.7328632 3.44375744,38.9704255 C3.62291471,39.2079878 3.9034271,39.3473838 4.20097156,39.3467107 L39.5157547,39.3630419 L39.5157547,39.3674959 L151.222056,39.3674959 C152.033761,39.3474078 152.757143,38.8502101 153.066742,38.0995992 L153.695494,36.4768696 C153.778258,36.1907492 153.721395,35.8823574 153.542032,35.644569 C153.362668,35.4067806 153.081763,35.2673838 152.783915,35.2683591" id="Path" fill="#EF5315"></path> <path d="M149.658713,43.3122284 L40.0910591,43.2862469 L40.0910591,43.2765966 L2.50994774,43.2765966 C1.69824291,43.2966847 0.974860959,43.7938824 0.665261973,44.5444933 L0.0372522509,46.1672229 C-0.0455114707,46.4533433 0.0113508221,46.761735 0.190714584,46.9995235 C0.370078346,47.2373119 0.650982839,47.3767087 0.948831375,47.3757333 L36.2636145,47.4076535 L36.2636145,47.4121074 L148.097596,47.4121074 C148.908479,47.3904534 149.630544,46.8932697 149.940055,46.1434684 L150.568065,44.5207388 C150.650829,44.2346184 150.593966,43.9262267 150.414603,43.6884382 C150.235239,43.4506498 149.954334,43.311253 149.656486,43.3122284" id="Path" fill="#FFAD27"></path> <path d="M50.0686934,12.2821641 L46.9137983,19.8591088 C45.9895996,22.1744307 45.4610618,23.1572733 45.6466439,24.2091525 C45.8567228,25.402074 46.7363818,25.6128952 47.7184821,25.6128952 C48.459611,25.6169588 49.1979986,25.522601 49.9142892,25.3322952 C50.2244701,25.2718797 50.5452889,25.3558766 50.7860657,25.5605441 C51.0268425,25.7652116 51.1614166,26.0683123 51.1517504,26.3841743 C50.9951191,28.2793384 49.4302911,30.9442969 44.0253989,30.9442969 C41.6402982,30.9442969 38.8380089,30.1730179 38.2441463,26.8050745 C37.8358658,24.4897526 38.236723,22.3845096 40.1237215,17.964687 L43.3483956,10.3877423 C43.891954,9.43023085 44.1148811,8.32391935 43.9845709,7.23062013 C43.8642863,5.93141052 42.7289202,4.96577253 41.42725,5.05559828 C39.2522281,5.05559828 36.1485536,8.14219926 34.3365303,11.7907427 L27.6941769,29.0506175 C27.3539276,29.7876851 26.611483,30.2552041 25.7997551,30.243539 L21.1023018,30.243539 C20.4705804,30.243539 19.9257114,29.5420388 20.1899803,29.0506175 L26.1894774,13.3340432 C27.5353186,9.82579979 27.7090234,8.42279934 27.5256683,7.37092018 C27.4078974,5.98080276 26.1899244,4.94653714 24.7990966,5.05559828 C22.6938536,5.05559828 19.800258,8.14219926 18.1285347,11.7907427 L11.5604141,29.0506175 C11.2201648,29.7876851 10.4777202,30.2552041 9.66599233,30.243539 L4.96482735,30.243539 C4.33384832,30.243539 3.78897936,29.5420388 4.05324823,29.0506175 L10.0527454,13.3340432 C11.3198997,10.1769211 11.7489655,8.63362058 11.5143897,7.30039899 C11.3884524,6.06213969 10.2903422,5.15526407 9.05060219,5.26567718 C8.44126781,5.25744118 7.83962931,5.40242661 7.30093444,5.68731965 C7.05506999,5.77322481 6.78265252,5.73228213 6.57290167,5.57790075 C6.36315083,5.42351938 6.24308408,5.1755848 6.25202458,4.91529824 C6.49155889,2.09869728 8.87443882,-0.0494657324 11.7007141,0.00331203021 C14.2988631,0.00331203021 17.0001957,1.40631247 18.0758294,5.12537714 C18.1960866,5.40597723 18.5011835,5.5470196 18.674146,5.33545604 C20.8127937,2.74027639 23.9788238,0.00331203021 27.4870673,0.00331203021 C30.7469591,-0.0961248842 33.6497744,2.05274434 34.5065235,5.19960997 C34.6260383,5.47946773 34.9311352,5.6205101 35.10484,5.40968887 C37.3711683,2.74027639 40.8177985,0.00331203021 44.3965631,0.00331203021 C47.8219372,-0.0998684312 50.7614488,2.42449427 51.1769896,5.82613503 C51.5481537,7.93137803 50.9490948,10.1063999 50.0694358,12.284391" id="Path" fill="#4A8C32"></path> <path d="M61.9452035,21.3326304 C62.3282449,23.5076523 63.4677188,25.1927374 65.8535619,25.1927374 C67.1306113,25.2421101 68.3921729,24.8993902 69.4687006,24.2106371 C69.8977664,23.8602582 70.6037206,24.28487 70.6326714,24.8423585 C70.9986392,27.7188806 69.2526831,30.9457816 63.9205391,30.9457816 C59.7107954,30.9457816 55.6806952,27.9994807 54.6815214,22.3162154 C52.9370499,12.4224641 60.2890692,0.00331203021 71.5152997,0.00331203021 C74.3220429,0.00331203021 76.418378,1.54735485 78.1472605,3.78918624 C78.3372966,4.06978633 78.7574544,4.06978633 78.8487607,3.78918624 L79.7076346,1.89476448 C80.0489812,1.15914598 80.7911925,0.693228134 81.6020563,0.70555458 L86.302479,0.70555458 C86.5940487,0.713210127 86.8665133,0.852325515 87.0436991,1.08400785 C87.2208849,1.31569019 87.2837799,1.61508004 87.2148004,1.89847612 L80.5835819,17.6150504 C79.6593832,19.9303723 78.998711,21.7542729 79.3075196,23.5083946 C79.6296901,25.3330375 80.8716053,25.6136376 82.1335634,25.6136376 C82.9733303,25.6333028 83.8069111,25.4654201 84.5735964,25.1222163 C84.8454072,25.0458541 85.1373964,25.109696 85.3525359,25.2925273 C85.5676754,25.4753587 85.6777796,25.7532265 85.6462608,26.0337954 C84.9920221,29.0231567 82.2716228,31.1007466 79.2154709,30.9450393 C75.6401392,31.0864415 72.5536402,28.4628205 72.1173279,24.911395 C71.3631224,20.6318725 73.2664521,16.7027289 74.3762329,14.247107 L76.8578363,8.42354167 C77.0120972,8.02995285 76.9052019,7.58194016 76.5898558,7.30039899 C75.745182,6.27563832 74.5175383,5.64169558 73.1929616,5.54627727 C64.4928742,5.54627727 61.0410477,16.2113076 61.9444612,21.3333727" id="Path" fill="#4A8C32"></path> <path d="M109.529931,17.9676563 L112.754605,10.3877423 C113.439774,8.70414176 113.490252,7.78959332 113.39078,7.23062013 C113.270053,5.9887263 112.220718,5.04474376 110.973017,5.05559828 C108.517395,5.05559828 104.877017,8.2824993 102.725007,12.001564 L96.1925186,29.0513598 C95.8525685,29.7886902 95.1099324,30.2563298 94.2980968,30.2442814 L89.5939625,30.2442814 C88.9622412,30.2442814 88.4173722,29.5427811 88.6816411,29.0513598 L94.6811382,13.3347856 C95.9482926,10.1776634 96.3781007,8.6343629 96.1435249,7.30114132 C96.0175988,6.06152605 94.9177458,5.15397352 93.6767681,5.26567718 C93.0672045,5.25750722 92.465342,5.40248513 91.926358,5.68731965 C91.6805708,5.77329905 91.4081821,5.73236472 91.1985224,5.57794116 C90.9888628,5.42351759 90.8689802,5.17552697 90.8781905,4.91529824 C91.1171051,2.09689316 93.5026228,-0.052183857 96.3305917,0.00331203021 C98.9962925,0.00331203021 101.863907,1.54661252 102.874958,5.68657732 C102.904047,5.79472077 102.98248,5.88278552 103.086548,5.92414968 C103.190617,5.96551384 103.308104,5.9553224 103.403495,5.89665622 C105.854663,3.09065533 109.800881,0.00331203021 113.730024,0.00331203021 C116.677067,0.00331203021 119.850521,1.68691256 120.531236,5.54627727 C120.91502,7.72129912 120.398359,9.96609983 119.473418,12.2814217 L116.317781,19.8591088 C115.392839,22.1744307 114.865044,23.1572733 115.050626,24.2091525 C115.260705,25.402074 116.139622,25.6128952 117.121722,25.6128952 C117.839898,25.6210435 118.555556,25.5265557 119.247008,25.3322952 C119.560174,25.2485518 119.894498,25.3238778 120.141492,25.5338303 C120.388486,25.7437828 120.516678,26.0616084 120.484469,26.3841743 C120.327838,28.2793384 118.76301,30.9442969 113.43235,30.9442969 C111.046507,30.9442969 108.24496,30.1730179 107.650356,26.8050745 C107.242817,24.4897526 107.576123,22.3845096 109.529931,17.964687" id="Path" fill="#4A8C32"></path> <path d="M131.559265,21.3326304 C131.942306,23.5076523 133.08178,25.1927374 135.467623,25.1927374 C136.744672,25.2421101 138.006234,24.8993902 139.082762,24.2106371 C139.511828,23.8602582 140.217782,24.28487 140.246733,24.8423585 C140.613443,27.7188806 138.866744,30.9457816 133.5346,30.9457816 C129.324857,30.9457816 125.294756,27.9994807 124.295582,22.3162154 C122.551111,12.4224641 129.90313,0.00331203021 141.129361,0.00331203021 C143.936104,0.00331203021 146.032439,1.54735485 147.762064,3.78918624 C147.9521,4.06978633 148.372258,4.06978633 148.463564,3.78918624 L149.322438,1.89476448 C149.663675,1.15939449 150.405521,0.69352322 151.216117,0.70555458 L155.91654,0.70555458 C156.207978,0.713429647 156.480234,0.852637312 156.657253,1.08428931 C156.834271,1.31594131 156.897075,1.61520366 156.828119,1.89847612 L150.197643,17.6150504 C149.273444,19.9303723 148.612772,21.7542729 148.921581,23.5083946 C149.243751,25.3330375 150.485666,25.6136376 151.747624,25.6136376 C152.587142,25.633192 153.420457,25.4653117 154.186915,25.1222163 C154.458726,25.0458541 154.750715,25.109696 154.965855,25.2925273 C155.180994,25.4753587 155.291098,25.7532265 155.25958,26.0337954 C154.605341,29.0231567 151.884942,31.1007466 148.82879,30.9450393 C145.253333,31.0868022 142.166623,28.4630016 141.730647,24.911395 C140.975699,20.6318725 142.879029,16.7027289 143.989552,14.247107 L146.474124,8.42354167 C146.628385,8.02995285 146.52149,7.58194016 146.206144,7.30039899 C145.36147,6.27563832 144.133826,5.64169558 142.80925,5.54627727 C134.109162,5.54627727 130.657336,16.2113076 131.560749,21.3333727" id="Path" fill="#4A8C32"></path> </g> </g> </svg> 